<svg xmlns="http://www.w3.org/2000/svg" xmlns:xlink="http://www.w3.org/1999/xlink" width="17.842" height="17.842" viewBox="0 0 17.842 17.842">
  <defs>
    <clipPath id="clip-path">
      <rect width="17.842" height="17.842" fill="none"/>
    </clipPath>
  </defs>
  <g id="组件_11_1" data-name="组件 11 – 1" clip-path="url(#clip-path)">
    <rect id="矩形_8" data-name="矩形 8" width="17.842" height="17.842" rx="2" fill="#009688"/>
    <path id="路径_13" data-name="路径 13" d="M74.226,67.32l-.861.861-3.1-3.106.861-.861a.731.731,0,0,1,1.034,0l2.067,2.07A.733.733,0,0,1,74.226,67.32Zm-5.514,5.52a.731.731,0,0,1-1.034,0l-.861-.861,2.93-2.932A.244.244,0,0,0,69.4,68.7l-2.931,2.932-.861-.861a.732.732,0,0,1,0-1.035l3.964-3.968,3.1,3.1Zm-3.8,1.179a.494.494,0,0,1-.483-.483l-.03-1.9,2.416,2.418Z" transform="translate(-60.677 -60.286)" fill="#fff"/>
  </g>
</svg>
