<svg xmlns="http://www.w3.org/2000/svg" xmlns:xlink="http://www.w3.org/1999/xlink" width="32.785" height="33" viewBox="0 0 32.785 33"><defs><clipPath id="a"><rect width="32.785" height="33" fill="none"/></clipPath></defs><g clip-path="url(#a)"><path d="M51.209,30.729m-16.393,0A16.393,16.393,0,1,0,51.209,14.336,16.393,16.393,0,0,0,34.816,30.729Z" transform="translate(-34.816 -14.336)" fill="#ffca4f"/><path d="M450.99,425.948a3.832,3.832,0,0,0,2.17-2.148l-.114-1.2a12.2,12.2,0,0,1-.828,1.106,3.053,3.053,0,0,1-2.429.014,10.589,10.589,0,0,1-.855-1.113l-.114,1.189A3.833,3.833,0,0,0,450.99,425.948ZM450.99,425.948Z" transform="translate(-434.597 -408.58)" fill="#ffd4ae"/><path d="M115.43,484.825l-.165-.053Zm-6.459-.063-.547.174.146-.046Zm-6.585,10.113.688,2.74-.049,1.178a16.137,16.137,0,0,0,18.2-.009l-.06-1.674.688-2.237,1.75,1.924a16.183,16.183,0,0,0,2.746-3.724c-1.66-2.093-3.826-4.452-4.777-5.472a1.975,1.975,0,0,0-.823-1.094l-4.709-1.493.362.114.229,3.023s-.063.25-.253.227l-1.078.406a.123.123,0,0,0-.007.16l.923.633-2.772,5.224h.874a.107.107,0,0,1,.107.107v.994a.108.108,0,0,1-.107.107h-4.4a.108.108,0,0,1-.107-.107v-.994a.107.107,0,0,1,.107-.107h.874l-2.772-5.224.923-.633a.123.123,0,0,0-.007-.16l-1.078-.406c-.19.023-.253-.227-.253-.227l.23-3.034.4-.127-4.744,1.514a1.975,1.975,0,0,0-.823,1.1c-.953,1.02-3.117,3.379-4.777,5.472a16.221,16.221,0,0,0,2.746,3.724l1.747-1.922Z" transform="translate(-95.727 -468.601)" fill="#15bdb1"/><path d="M406.144,485.122l.607.193Zm-7.194.171.188-.06Zm3.884,1.011.053,0-.053-.039-.053.039Zm-3.7-1.071-.188.06.334-.106Zm6.84-.164.772.246-.607-.193Z" transform="translate(-386.441 -468.898)" fill="#f1f1f1"/><path d="M451.88,521.011l-.053,0-2.086,1.546,2.139,6.365,2.163-6.348-2.111-1.564Z" transform="translate(-435.487 -503.605)" fill="#f1f1f1"/><path d="M381.733,484.89l.4-.128Zm7.437.362-3.885,9.178,0,.005,0,0-3.885-9.18.088-.056-.083-.2-.4.127-.23,3.034s.063.25.253.227l1.078.406a.123.123,0,0,1,.007.16l-.923.633,2.772,5.224H386.6l2.772-5.224-.923-.633a.123.123,0,0,1,.007-.16l1.078-.406c.19.023.253-.227.253-.227l-.229-3.023-.362-.114-.084.2Z" transform="translate(-368.89 -468.601)" fill="#20d0c2"/><path d="M398.848,485.252l3.885,9.181-3.8-9.236Zm7.774,0-.053-.033-3.833,9.213Zm-.744-.473.691.44.083-.2-.772-.246Zm-3.145,9.654,0,0,0,0,0,0Zm-3.141-9.654-.005-.018-.4.128-.334.106.083.2Z" transform="translate(-386.342 -468.601)" fill="#20d0c2"/><path d="M407.321,488.067l-2.163,6.348-2.139-6.365-.155.113-.85-2.888-.658.419,3.8,9.236,0,0,0,0,3.833-9.213-.691-.44-.851,2.888Z" transform="translate(-388.765 -469.096)" fill="#20d0c2"/><path d="M367.85,173.524h3.029l.165,1.727a15.9,15.9,0,0,0,2.146-4.2c.095.06.206.134.252.1.524-.378.978-2.93.276-3.217a1.06,1.06,0,0,0-.762.864c-.081.656-.03.691-.025.693l-.244-.055-.174-1.189c-1.011-.633.007-1.572-1-1.792-2.73,1.951-5.141,1.616-6.228.7,0,0,.253.959.058,1.3a1.477,1.477,0,0,0-.079.879l-.253-.012s.046-1.411-.517-1.405c-1.013-.188-.524,2.821.049,3.235.046.033.158-.04.252-.1a15.634,15.634,0,0,0,2.144,4.209l.167-1.734h.749Z" transform="translate(-352.597 -161.226)" fill="#ffdebb"/><path d="M455.382,375.211a11.942,11.942,0,0,0,.828-1.106l-.165-1.727h-3.782l-.167,1.734a10.834,10.834,0,0,0,.855,1.113A3.065,3.065,0,0,0,455.382,375.211Z" transform="translate(-437.761 -360.078)" fill="#ffdebb"/><path d="M369.472,53.611c.056-2.338,2.172-3.5,4.4-3.514,2.228.011,4.346,1.177,4.4,3.512,0,.3.107.586.1.871a.4.4,0,0,1,.227.018,15.368,15.368,0,0,0-.072-2.346,1.716,1.716,0,0,0-1.611-1.537c-2.906-4.07-9.691.325-7.549,3.866C369.362,54.2,369.472,53.907,369.472,53.611Z" transform="translate(-357.481 -47.791)" fill="#666"/><path d="M381.386,87.3l.253.012a1.477,1.477,0,0,1,.079-.879c.2-.341-.058-1.3-.058-1.3,1.087.916,3.5,1.249,6.23-.7,1.011.22-.007,1.159,1,1.792l.174,1.189.244.055c-.005,0-.056-.037.025-.693a1.058,1.058,0,0,1,.762-.864.4.4,0,0,0-.227-.018c.009-.285-.1-.573-.1-.871-.056-2.336-2.174-3.5-4.4-3.512-2.23.011-4.346,1.177-4.4,3.512,0,.3-.107.586-.1.871C381.434,85.887,381.386,87.3,381.386,87.3Z" transform="translate(-368.979 -79.203)" fill="#666"/><path d="M421.228,451.84s0,.009,0,.012S421.233,451.842,421.228,451.84Zm-.86,1.11.343-.218.544-.436.025-.264c-.019-.06-.035-.12-.049-.179a14.389,14.389,0,0,1-.929,1.119Z" transform="translate(-407.058 -436.81)" fill="#fff"/><path d="M420.76,458.121l-.343.218.021.063,1.9,1.166H423.5a3.832,3.832,0,0,1-2.17-2.148l-.025.264Zm-.343.218-.065.021Zm.021.063-.021-.063Z" transform="translate(-407.108 -442.199)" fill="#fff"/><path d="M425.87,487.2l.053-.039h-1.164l-1.9-1.166.447,1.33Z" transform="translate(-409.53 -469.788)" fill="#fff"/><path d="M421.362,486.961l2.086-1.546-2.563.125-.447-1.33Zm-.985-2.788.04-.026-.065.021.011,0Z" transform="translate(-407.108 -468.008)" fill="#fff"/><path d="M420.438,484.211l-.021-.063-.04.026Zm-.076-.046-.011,0,.005.018.019-.012Z" transform="translate(-407.108 -468.008)" fill="#fff"/><path d="M421.51,455.764l-.923-2.751-.062-.037-.019.012.85,2.888Zm4.358-3.912s0-.009,0-.012S425.867,451.845,425.868,451.852Z" transform="translate(-407.256 -436.81)" fill="#fff"/><path d="M575.751,453.078l.382.243.023.007,0-.011a14.368,14.368,0,0,1-.929-1.119c-.014.06-.03.12-.049.179l.025.264Z" transform="translate(-556.618 -437.157)" fill="#fff"/><path d="M512,459.568h1.171l1.949-1.2-.382-.243-.544-.436-.025-.264A3.832,3.832,0,0,1,512,459.568Zm3.122-1.2.023.007ZM515.122,458.364Z" transform="translate(-495.607 -442.199)" fill="#fff"/><path d="M514.654,486.234l.466-1.37-1.949,1.2H512l.053.039Zm.468-1.37.023.007ZM515.122,484.864Z" transform="translate(-495.607 -468.7)" fill="#fff"/><path d="M515.647,487.671l.491-1.437-2.6-.127Zm.959-2.807h0Zm-.468,1.37.468-1.37h0Zm.489-1.356,0-.007-.023-.007Z" transform="translate(-497.091 -468.7)" fill="#fff"/><path d="M575.935,484.864l-.468,1.37-.491,1.437.128.095.851-2.888Z" transform="translate(-556.42 -468.7)" fill="#fff"/><path d="M447.282,777.979q-.454,0-.9-.026l-.419-.788h-.874a.108.108,0,0,0-.107.107v.994a.108.108,0,0,0,.107.107h4.39a.107.107,0,0,0,.107-.107v-.994a.107.107,0,0,0-.107-.107H448.6l-.419.788Q447.735,777.979,447.282,777.979Z" transform="translate(-430.889 -750.959)" fill="#ecf0f1"/><path d="M473.967,777.953q.449.026.9.026t.9-.026l.419-.788h-2.642Z" transform="translate(-458.477 -750.959)" fill="#ecf0f1"/></g></svg>