<svg xmlns="http://www.w3.org/2000/svg" xmlns:xlink="http://www.w3.org/1999/xlink" width="33" height="33" viewBox="0 0 33 33"><defs><clipPath id="a"><rect width="33" height="33" fill="none"/></clipPath></defs><g clip-path="url(#a)"><path d="M16.5,33A16.5,16.5,0,1,1,33,16.5,16.5,16.5,0,0,1,16.5,33Zm3.548-13.942c-.346.175-2.082,1.3-2.082,1.3A7.986,7.986,0,0,1,14.8,18.19a8.121,8.121,0,0,1-2.17-3.125s1.129-1.736,1.3-2.084a1.1,1.1,0,0,0,.084-.957c-.216-.347-2.124-3.257-2.3-3.518a.786.786,0,0,0-1.129-.043c-.478.3-2.343,1.866-2.343,2.518s-.172,3.65,4.99,8.816c5.158,5.127,8.151,4.953,8.8,4.953.65.043,2.168-1.869,2.515-2.348a.828.828,0,0,0-.043-1.129q-1.753-1.158-3.514-2.3c-.215-.173-.606-.088-.952.087Z" fill="#00b38b"/></g></svg>